<?xml version="1.0" encoding="utf-8"?>
<!-- Generator: Adobe Illustrator 25.1.0, SVG Export Plug-In . SVG Version: 6.00 Build 0)  -->
<svg version="1.1" id="logo_x5F_only" xmlns="http://www.w3.org/2000/svg" xmlns:xlink="http://www.w3.org/1999/xlink" x="0px"
	 y="0px" viewBox="0 0 864 864" style="enable-background:new 0 0 864 864;" xml:space="preserve">
<style type="text/css">
	.st0{clip-path:url(#SVGID_2_);fill:url(#SVGID_3_);}
</style>
<g>
	<defs>
		<path id="SVGID_1_" d="M344.14,454.14L344.14,454.14c-3.85,0-6.98-3.12-6.98-6.98v-28.39c0-3.85,3.12-6.98,6.98-6.98h0
			c3.85,0,6.98,3.12,6.98,6.98v28.39C351.12,451.02,347.99,454.14,344.14,454.14z M474.97,458.21v-50.47c0-3.85-3.12-6.98-6.98-6.98
			h0c-3.85,0-6.98,3.12-6.98,6.98v50.47c0,3.85,3.12,6.98,6.98,6.98h0C471.85,465.18,474.97,462.06,474.97,458.21z M450.2,474.02
			v-82.1c0-3.85-3.12-6.98-6.98-6.98h0c-3.85,0-6.98,3.12-6.98,6.98v82.1c0,3.85,3.12,6.98,6.98,6.98h0
			C447.08,481,450.2,477.87,450.2,474.02z M425.43,498.11V367.84c0-3.85-3.12-6.98-6.98-6.98l0,0c-3.85,0-6.98,3.12-6.98,6.98
			v130.27c0,3.85,3.12,6.98,6.98,6.98l0,0C422.3,505.08,425.43,501.96,425.43,498.11z M400.66,512.81V353.14
			c0-3.85-3.12-6.98-6.98-6.98l0,0c-3.85,0-6.98,3.12-6.98,6.98v159.67c0,3.85,3.12,6.98,6.98,6.98l0,0
			C397.53,519.79,400.66,516.66,400.66,512.81z M375.89,484.51V381.43c0-3.85-3.12-6.98-6.98-6.98h0c-3.85,0-6.98,3.12-6.98,6.98
			v103.08c0,3.85,3.12,6.98,6.98,6.98h0C372.76,491.49,375.89,488.37,375.89,484.51z M499.74,474.1v-82.26
			c0-3.85-3.12-6.98-6.98-6.98l0,0c-3.85,0-6.98,3.12-6.98,6.98v82.26c0,3.85,3.12,6.98,6.98,6.98l0,0
			C496.62,481.08,499.74,477.95,499.74,474.1z M524.51,449.22v-32.49c0-3.85-3.12-6.98-6.98-6.98h0c-3.85,0-6.98,3.12-6.98,6.98
			v32.49c0,3.85,3.12,6.98,6.98,6.98h0C521.39,456.2,524.51,453.07,524.51,449.22z"/>
	</defs>
	<clipPath id="SVGID_2_">
		<use xlink:href="#SVGID_1_"  style="overflow:visible;"/>
	</clipPath>
	<linearGradient id="SVGID_3_" gradientUnits="userSpaceOnUse" x1="340.5946" y1="342.7297" x2="521.0804" y2="523.2155">
		<stop  offset="0" style="stop-color:#81D0DA"/>
		<stop  offset="0.25" style="stop-color:#2BC1D6"/>
		<stop  offset="0.5" style="stop-color:#338ACA"/>
		<stop  offset="0.75" style="stop-color:#4D5E9F"/>
		<stop  offset="1" style="stop-color:#2D3C6D"/>
	</linearGradient>
	<rect x="337.16" y="346.16" class="st0" width="187.35" height="173.63"/>
</g>
</svg>
